# xmcd
#
# Track frame offsets: 
#        150
#        25820
#        42232
#        51305
#        68380
#        82082
#        96035
#        110987
#        128497
#        141660
#        164330
#
# Disc length: 2372 seconds
#
# Revision: 3
# Processed by: cddbd v1.5.2PL0 Copyright (c) Steve Scherf et al.
# Submitted via: ExactAudioCopy v0.99pb5
#
DISCID=9809420b
DTITLE=Matt "Guitar" Murphy - The Blues Don't Bother Me!
DYEAR=1996
DGENRE=Blues
TTITLE0=Ungrateful Woman
TTITLE1=The Blues Don't Bother Me
TTITLE2=Some Sanctified Funk
TTITLE3=I Can't Hang
TTITLE4=I Can Cry On My Own
TTITLE5=Strut Your Stuff
TTITLE6=Bye Bye Texas
TTITLE7=It's Been A Long Long Time
TTITLE8=We're Gonna Have A Party
TTITLE9=Bip Bop
TTITLE10=I Ain't Got No Time
EXTD=
EXTT0=
EXTT1=
EXTT2=
EXTT3=
EXTT4=
EXTT5=
EXTT6=
EXTT7=
EXTT8=
EXTT9=
EXTT10=
PLAYORDER=
